# generated from PmQm by Jehee Lee
:FULLY-SPECIFIED
:DEGREES
74
root -24.39300563 39.1443 -102.9609737 -130.2518886 83.67978448 -128.7647266
RightUpLeg -14.23951914 3.950702738 8.783955926
RightLeg 22.367271 0 0
RightFoot -8.289816695 3.015953356 -4.721819233
RightToes 2.32829e-010 -1.59028e-015 9.93923e-017
Spine -7.68166 -0.17435 8.22232
Spine1 13.3304 -0.160738 0.328532
HEad -6.7365 -3.35321 3.01867
LeftShoulder1 9.93923e-017 0 1.22299e-017
LeftArm 5.60205 44.353 -79.4347
LeftForeArm -13.5077 -8.53464 -6.98397
LeftHand 1.03691 7.58639 -7.36546
RightShoulder 1.98785e-016 -4.96962e-017 1.55301e-017
RightArm 23.2456 -37.7105 87.0416
RightForeArm -47.9143 19.9529 -13.667
RightHand 1.16294 -10.4491 -5.53183
LeftUpLeg -19.41403215 -7.189613341 9.916545155
LeftLeg 60.77954334 -1.861127262 9.438373921
LeftFoot 11.44624399 -8.137957831 -4.968905178
LeftToes 8.82235e-011 9.04645e-011 1.87288e-011
75
root -22.89671564 39.2712 -102.8333838 -124.509815 85.01634071 -122.911083
RightUpLeg -11.25281629 3.696177904 8.500828377
RightLeg 21.72635841 0 0
RightFoot -9.938159584 4.580931393 -5.406425357
RightToes 2.32829e-010 -1.59028e-015 9.93923e-017
Spine -7.50668 1.16492 9.12466
Spine1 13.1693 1.53409 -1.02202
HEad -6.76522 -4.21988 2.61991
LeftShoulder1 9.93923e-017 0 1.22299e-017
LeftArm 7.35789 48.1467 -76.6541
LeftForeArm -14.7028 -10.3329 -5.82241
LeftHand 1.0147 7.29527 -7.40219
RightShoulder 1.98785e-016 -4.96962e-017 1.55301e-017
RightArm 27.874 -35.0547 86.6223
RightForeArm -54.4254 21.509 -20.8458
RightHand 1.13653 -10.2799 -5.47069
LeftUpLeg -22.72880834 -6.018020886 8.150242645
LeftLeg 56.78270123 -3.410996945 6.666447992
LeftFoot 7.774630948 -7.172487473 -5.095620896
LeftToes 8.82235e-011 9.04645e-011 1.87288e-011
76
root -21.41521161 39.3511 -102.7212934 -110.997878 86.09242964 -109.4093671
RightUpLeg -8.342742893 3.3389922 8.389501447
RightLeg 20.8426746 0 0
RightFoot -11.62061947 6.221736926 -6.281380408
RightToes 2.32829e-010 -1.59028e-015 9.93923e-017
Spine -7.5167 2.4629 10.0566
Spine1 13.1436 3.04149 -2.25914
HEad -7.17577 -4.74753 2.14411
LeftShoulder1 9.93923e-017 0 1.22299e-017
LeftArm 9.71386 51.2335 -73.7732
LeftForeArm -17.2206 -12.4679 -4.32667
LeftHand 1.00603 7.18139 -7.52092
RightShoulder 1.98785e-016 -4.96962e-017 1.55301e-017
RightArm 23.4667 -31.7158 85.2526
RightForeArm -49.3998 24.6436 -22.8614
RightHand 1.11765 -10.0563 -5.86373
LeftUpLeg -25.27993407 -3.892405753 6.834341945
LeftLeg 50.11716843 -4.452404758 4.430027275
LeftFoot 4.217670267 -6.130260114 -5.409833738
LeftToes 8.82235e-011 9.04645e-011 1.87288e-011
77
root -19.95727128 39.3275 -102.6542655 -93.73344039 86.3865962 -92.00611541
RightUpLeg -5.319147716 2.79781775 8.532646951
RightLeg 20.02792315 0 0
RightFoot -13.61622527 7.48581916 -6.634806979
RightToes 2.32829e-010 -1.59028e-015 9.93923e-017
Spine -7.50674 3.43618 11.2677
Spine1 13.3803 4.13737 -3.40054
HEad -7.70232 -4.95186 1.66868
LeftShoulder1 9.93923e-017 0 1.22299e-017
LeftArm 9.94681 53.4464 -71.1492
LeftForeArm -17.9221 -13.2168 -3.49391
LeftHand 1.0069 7.19274 -7.40753
RightShoulder 1.98785e-016 -4.96962e-017 1.55301e-017
RightArm 21.8119 -28.0745 84.0461
RightForeArm -46.3925 27.0863 -24.6167
RightHand 1.13036 -10.0345 -6.34538
LeftUpLeg -26.64795973 -1.666552538 5.955557918
LeftLeg 40.81379339 -5.128909197 2.706035352
LeftFoot 3.331981618 -4.797161012 -6.579890978
LeftToes 8.82235e-011 9.04645e-011 1.87288e-011
78
root -18.4941889 39.2265 -102.6179442 -85.36593529 86.14591117 -83.32155835
RightUpLeg -2.015275851 2.20471891 8.798412559
RightLeg 19.11900954 0 0
RightFoot -15.42171459 8.312212258 -6.518199278
RightToes 2.32829e-010 -1.59028e-015 9.93923e-017
Spine -7.51407 3.94656 12.4929
Spine1 13.8214 4.73415 -4.4139
HEad -8.20261 -4.98025 1.35199
LeftShoulder1 9.93923e-017 0 1.22299e-017
LeftArm 7.05531 54.8469 -68.866
LeftForeArm -15.3483 -12.2028 -3.69852
LeftHand 0.989239 6.97426 -6.78467
RightShoulder 1.98785e-016 -4.96962e-017 1.55301e-017
RightArm 20.9799 -24.6445 83.1853
RightForeArm -44.7933 28.7058 -25.8324
RightHand 1.16563 -10.225 -6.54391
LeftUpLeg -26.68430742 -0.563750597 5.283452716
LeftLeg 29.37096283 -5.545248739 1.352526395
LeftFoot 4.90093616 -3.341150012 -7.173622971
LeftToes 8.82235e-011 9.04645e-011 1.87288e-011
79
root -17.0114387 39.1368 -102.5919097 -82.65290619 85.9750365 -80.59309884
RightUpLeg 1.257880116 1.790335693 8.973988437
RightLeg 17.61963117 0 0
RightFoot -16.61864701 8.945396452 -6.405149133
RightToes 2.32829e-010 -1.59028e-015 9.93923e-017
Spine -8.09685 4.28993 13.4388
Spine1 14.4793 5.16981 -5.55563
HEad -8.53831 -5.02505 1.2513
LeftShoulder1 9.93923e-017 0 1.22299e-017
LeftArm 3.03309 55.6042 -66.8765
LeftForeArm -11.7008 -10.2295 -4.35487
LeftHand 0.964956 6.70599 -5.97777
RightShoulder 1.98785e-016 -4.96962e-017 1.55301e-017
RightArm 20.1872 -21.9817 82.6238
RightForeArm -44.228 29.6533 -26.5435
RightHand 1.17304 -10.2993 -6.4314
LeftUpLeg -25.9593873 -0.6684926467 4.502720599
LeftLeg 16.61459929 -5.627649026 0.4978812784
LeftFoot 6.696482735 -1.985245949 -6.747530936
LeftToes 8.82235e-011 9.04645e-011 1.87288e-011
80
root -15.50315884 39.0155 -102.593864 -77.01809234 85.68208634 -75.6284764
RightUpLeg 3.673387098 1.516269156 9.08942206
RightLeg 16.37622454 0 0
RightFoot -17.79403622 9.750448892 -6.321054456
RightToes 2.32829e-010 -1.59028e-015 9.93923e-017
Spine -9.55206 4.83757 14.5931
Spine1 15.3412 5.80493 -6.97747
HEad -8.71883 -5.13068 1.30073
LeftShoulder1 9.93923e-017 0 1.22299e-017
LeftArm -0.365423 55.8509 -65.2931
LeftForeArm -9.19698 -8.25998 -4.8776
LeftHand 0.973909 6.82217 -5.55341
RightShoulder 1.98785e-016 -4.96962e-017 1.55301e-017
RightArm 19.5693 -20.2135 82.2798
RightForeArm -44.1874 29.9719 -26.7769
RightHand 1.14635 -10.1704 -6.21836
LeftUpLeg -25.86878329 -0.3734923001 3.564075404
LeftLeg 5.42333859 -5.436485784 0.2678561149
LeftFoot 6.845888427 -0.6914333478 -6.975314464
LeftToes 8.82235e-011 9.04645e-011 1.87288e-011
81
root -13.94753277 38.7936 -102.6441127 -70.80434624 85.10902058 -70.45824164
RightUpLeg 5.132814323 1.17972598 9.093482426
RightLeg 16.41538961 0 0
RightFoot -19.13317472 10.94340669 -5.768007489
RightToes 2.32829e-010 -1.59028e-015 9.93923e-017
Spine -11.2292 5.50976 16.0989
Spine1 16.0748 6.49691 -8.38122
HEad -8.96868 -5.25482 1.45882
LeftShoulder1 9.93923e-017 0 1.22299e-017
LeftArm -3.43556 55.6358 -64.3967
LeftForeArm -7.41591 -6.44362 -5.20002
LeftHand 1.00257 7.13443 -5.52391
RightShoulder 1.98785e-016 -4.96962e-017 1.55301e-017
RightArm 19.2962 -19.3455 82.2059
RightForeArm -44.2739 29.6849 -26.5628
RightHand 1.13498 -10.1113 -6.14149
LeftUpLeg -27.69776753 -0.435762076 3.288585929
LeftLeg 0.7804059433 -3.489411071 -0.05652677172
LeftFoot 4.375057524 0.4518895636 -8.640566971
LeftToes 8.82235e-011 9.04645e-011 1.87288e-011
82
root -12.36695933 38.606 -102.7051939 -67.70614731 85.0967494 -68.16275466
RightUpLeg 6.691834204 0.7587193353 8.427536288
RightLeg 16.75329546 0 0
RightFoot -19.37371292 12.39013103 -4.56656095
RightToes 2.32829e-010 -1.59028e-015 9.93923e-017
Spine -12.1546 5.85722 16.6885
Spine1 16.4674 7.00495 -9.47714
HEad -9.44381 -5.42776 1.65421
LeftShoulder1 9.93923e-017 0 1.22299e-017
LeftArm -6.6077 55.0293 -64.3725
LeftForeArm -5.50597 -4.71902 -5.34881
LeftHand 1.0012 7.1207 -5.41116
RightShoulder 1.98785e-016 -4.96962e-017 1.55301e-017
RightArm 19.1526 -19.652 82.4421
RightForeArm -44.4089 28.9425 -26.0225
RightHand 1.15452 -10.207 -6.29791
LeftUpLeg -29.06929691 -0.7969671162 2.533028488
LeftLeg 0.4702705346 -1.477718795 -0.4503556572
LeftFoot 2.271228276 1.088929806 -9.700451616
LeftToes 8.82235e-011 9.04645e-011 1.87288e-011
83
root -10.69725203 38.4781 -102.7717375 -59.57993085 85.67927383 -60.41618483
RightUpLeg 8.52053285 -0.02167110143 6.610757583
RightLeg 17.63025243 0 0
RightFoot -18.75659149 14.67134901 -3.268657807
RightToes 2.32829e-010 -1.59028e-015 9.93923e-017
Spine -12.4809 6.07 16.131
Spine1 16.6758 7.5605 -10.1947
HEad -9.91584 -5.61014 1.72987
LeftShoulder1 9.93923e-017 0 1.22299e-017
LeftArm -9.17442 54.3413 -65.0809
LeftForeArm -4.28792 -3.67452 -5.31467
LeftHand 0.976454 6.86272 -5.07199
RightShoulder 1.98785e-016 -4.96962e-017 1.55301e-017
RightArm 19.3593 -21.2995 82.9588
RightForeArm -44.8823 27.7921 -25.1879
RightHand 1.1632 -10.207 -6.55283
LeftUpLeg -28.78831825 -1.765574033 1.135146168
LeftLeg 2.102161624 0 0
LeftFoot 2.695243725 0.4760749453 -8.163482456
LeftToes 8.82235e-011 9.04645e-011 1.87288e-011
84
root -8.927148475 38.3992 -102.8540775 -34.40890411 86.00486146 -35.6182942
RightUpLeg 9.726743307 -1.623360652 3.133952028
RightLeg 19.78216088 0 0
RightFoot -17.36576725 18.76553418 -1.843114167
RightToes 2.32829e-010 -1.59028e-015 9.93923e-017
Spine -12.9619 6.48979 14.6785
Spine1 16.9032 8.37685 -10.7635
HEad -9.95357 -5.53207 1.71529
LeftShoulder1 9.93923e-017 0 1.22299e-017
LeftArm -10.4968 54.0093 -66.1619
LeftForeArm -4.69278 -3.83271 -5.16164
LeftHand 0.972732 6.82958 -4.8704
RightShoulder 1.98785e-016 -4.96962e-017 1.55301e-017
RightArm 21.128 -23.8806 83.8761
RightForeArm -46.265 25.967 -23.8724
RightHand 1.1413 -10.0446 -6.63461
LeftUpLeg -27.49124296 -2.853808918 -0.3342760056
LeftLeg 3.557773394 0 0
LeftFoot 6.44402025 0.3675138902 -3.134742748
LeftToes 8.82235e-011 9.04645e-011 1.87288e-011
